{"title":"Mercenaries 2014 BRRip XviD AC3-ORGASM","uid":10730819,"size":1560583974,"categoryP":"video","categoryS":"movies","magnet":"?xt=urn:btih:de6d598d3e744843b418d21b486046c3d4930d86&amp;dn=Mercenaries+2014+BRRip+XviD+AC3-ORGASM&amp;tr=udp%3A%2F%2Ftracker.openbittorrent.com%3A80&amp;tr=udp%3A%2F%2Fopen.demonii.com%3A1337&amp;tr=udp%3A%2F%2Ftracker.coppersurfer.tk%3A6969&amp;tr=udp%3A%2F%2Fexodus.desync.com%3A6969","seeders":1,"leechers":0,"uploader":null,"files":2,"time":1407623270,"description":"[IMG]http://i.imgur.com/1AKWRda.jpg[/IMG]\n\nSource.... 720p Bluray RBG :bow:\n\nIMDB.... http://www.imdb.com/title/tt3761034/\n\nWork Done... Added Some Nice Filters Sharpened It Up Muxed Back The Audio And Boosh Another ORGASM\nNow Dont Forget You Want Action Come Find Me Ill give You  An ORGASM :wink:\nEncoded By KingDong The Love Guru Of The P2P World.....\n\nFormat                                   : AVI\nFormat/Info                              : Audio Video Interleave\nFile size                                : 1.42 GiB\nDuration                                 : 1h 29mn\nOverall bit rate                         : 2 289 Kbps\n\nVideo\nID                                       : 0\nFormat                                   : MPEG-4 Visual\nFormat profile                           : Advanced Simple@L5\nFormat settings, BVOP                    : 2\nFormat settings, QPel                    : No\nFormat settings, GMC                     : No warppoints\nFormat settings, Matrix                  : Default (MPEG)\nMuxing mode                              : Packed bitstream\nCodec ID                                 : XVID\nCodec ID/Hint                            : XviD\nDuration                                 : 1h 29mn\nBit rate                                 : 1 897 Kbps\nWidth                                    : 720 pixels\nHeight                                   : 400 pixels\nDisplay aspect ratio                     : 16:9\nFrame rate                               : 23.976 fps\nColor space                              : YUV\nChroma subsampling                       : 4:2:0\nBit depth                                : 8 bits\nScan type                                : Progressive\nCompression mode                         : Lossy\nBits/(Pixel*Frame)                       : 0.275\nStream size                              : 1.18 GiB (83%)\nWriting library                          : XviD 65\n\nAudio\nID                                       : 1\nFormat                                   : AC-3\nFormat/Info                              : Audio Coding 3\nMode extension                           : CM (complete main)\nFormat settings, Endianness              : Big\nCodec ID                                 : 2000\nDuration                                 : 1h 29mn\nBit rate mode                            : Constant\nBit rate                                 : 384 Kbps\nChannel(s)                               : 6 channels\nChannel positions                        : Front: L C R, Side: L R, LFE\nSampling rate                            : 48.0 KHz\nBit depth                                : 16 bits\nCompression mode                         : Lossy\nStream size                              : 245 MiB (17%)\nAlignment                                : Aligned on interleaves\nInterleave, duration                     : 64 ms (1.53 video frames)\nInterleave, preload duration             : 192 ms\nTitle                                    : English\n\nScreens...\n\n[IMG]http://i.imgur.com/UkVUVEC.png[/IMG]\n\n[IMG]http://i.imgur.com/RrkRJf3.png[/IMG]\n\n[IMG]http://i.imgur.com/b2AlRcY.png[/IMG]\n\nGreetz...\nAll Those Who Deserve It You Know Who You Are..\n\nKing Leaker Of P2P SPEED24 How Could We Ever Forgot You My Little Darling You Been Leaking Stuff Lately? I Hear You Have :whistle:","torrent":{"xt":"urn:btih:de6d598d3e744843b418d21b486046c3d4930d86","amp;dn":"Mercenaries+2014+BRRip+XviD+AC3-ORGASM","amp;tr":["udp%3A%2F%2Ftracker.openbittorrent.com%3A80","udp%3A%2F%2Fopen.demonii.com%3A1337","udp%3A%2F%2Ftracker.coppersurfer.tk%3A6969","udp%3A%2F%2Fexodus.desync.com%3A6969"],"infoHash":"de6d598d3e744843b418d21b486046c3d4930d86","infoHashBuffer":{"type":"Buffer","data":[222,109,89,141,62,116,72,67,180,24,210,27,72,96,70,195,212,147,13,134]},"announce":[],"urlList":[]}}